<svg id="Layer_1" data-name="Layer 1" xmlns="http://www.w3.org/2000/svg" xmlns:xlink="http://www.w3.org/1999/xlink" viewBox="0 0 50 50"><defs><style>.cls-1{fill:#fff;}.cls-2{fill:url(#linear-gradient);}.cls-3{fill:url(#linear-gradient-2);}.cls-4{fill:url(#linear-gradient-3);}.cls-5{fill:url(#linear-gradient-4);}.cls-6{fill:url(#linear-gradient-5);}.cls-7{fill:url(#linear-gradient-6);}</style><linearGradient id="linear-gradient" x1="22.92" y1="20.26" x2="32.13" y2="20.26" gradientUnits="userSpaceOnUse"><stop offset="0" stop-color="#764d2a"/><stop offset="1" stop-color="#3c2417"/></linearGradient><linearGradient id="linear-gradient-2" x1="28.48" y1="21.99" x2="28.48" y2="32.27" xlink:href="#linear-gradient"/><linearGradient id="linear-gradient-3" x1="14.68" y1="13.92" x2="22.28" y2="13.92" gradientUnits="userSpaceOnUse"><stop offset="0" stop-color="#028d45"/><stop offset="1" stop-color="#8cc540"/></linearGradient><linearGradient id="linear-gradient-4" x1="16.96" y1="6.9" x2="22.28" y2="6.9" gradientUnits="userSpaceOnUse"><stop offset="0" stop-color="#aec036"/><stop offset="1" stop-color="#8cc540"/></linearGradient><linearGradient id="linear-gradient-5" x1="22.92" y1="9.08" x2="29" y2="9.08" xlink:href="#linear-gradient-3"/><linearGradient id="linear-gradient-6" x1="26.64" y1="21.87" x2="26.64" y2="33.32" xlink:href="#linear-gradient"/></defs><rect class="cls-1" width="50" height="50" rx="25"/><path d="M11.43,36.52a.22.22,0,0,1,0-.12l.06-.1.1-.07.11,0h1.19a1.33,1.33,0,0,1,.47.07.89.89,0,0,1,.34.21.79.79,0,0,1,.2.33,1.64,1.64,0,0,1,.07.46,1.52,1.52,0,0,1-.07.45.79.79,0,0,1-.2.33.7.7,0,0,1-.34.21,1.33,1.33,0,0,1-.47.07H12v1.09a.59.59,0,0,1,0,.13.33.33,0,0,1-.06.1l-.09.07a.27.27,0,0,1-.12,0,.21.21,0,0,1-.12,0,.22.22,0,0,1-.09-.07.21.21,0,0,1-.06-.1.3.3,0,0,1,0-.13Zm1.33,1.3a.73.73,0,0,0,.49-.14.49.49,0,0,0,.16-.4.48.48,0,0,0-.16-.4.73.73,0,0,0-.49-.14H12v1.08Z"/><path d="M15.73,36.44a.32.32,0,0,1,.12-.18.34.34,0,0,1,.2-.06h.27l.1,0s0,0,.08.07l.06.12.94,2.76,0,.06a.24.24,0,0,1,0,.08.19.19,0,0,1,0,.07.18.18,0,0,1,0,.06.36.36,0,0,1,0,.11l-.06.09-.09.06-.11,0a.39.39,0,0,1-.17,0,.28.28,0,0,1-.11-.13l-.25-.75H15.47l-.25.75a.27.27,0,0,1-.1.13.29.29,0,0,1-.17,0l-.12,0a.35.35,0,0,1-.14-.14.2.2,0,0,1,0-.11v-.07s0,0,0-.07a.24.24,0,0,0,0-.08l0-.06Zm.4.38-.54,1.6h1.05Z"/><path d="M20.87,38a.44.44,0,0,1,.2.08.56.56,0,0,1,.14.16,1.35,1.35,0,0,1,.08.24,1.58,1.58,0,0,1,0,.32c0,.07,0,.14,0,.2s0,.11,0,.15l0,.13a.45.45,0,0,1,0,.11.27.27,0,0,1,0,.13.37.37,0,0,1,0,.11.24.24,0,0,1-.09.06.2.2,0,0,1-.11,0,.33.33,0,0,1-.15,0,.21.21,0,0,1-.11-.07.24.24,0,0,1-.06-.09.76.76,0,0,1,0-.11s0-.07,0-.11v-.08c0-.15,0-.29,0-.41a1.16,1.16,0,0,0-.08-.31.53.53,0,0,0-.15-.2.49.49,0,0,0-.25-.07h-1v1.15a.57.57,0,0,1,0,.13l-.06.1-.09.07a.28.28,0,0,1-.13,0,.27.27,0,0,1-.12,0,.31.31,0,0,1-.09-.07.33.33,0,0,1-.06-.1.59.59,0,0,1,0-.13V36.52a.21.21,0,0,1,0-.12.21.21,0,0,1,.06-.1l.09-.07.11,0h1.3a1.65,1.65,0,0,1,.46.06,1.06,1.06,0,0,1,.33.19.81.81,0,0,1,.21.3,1,1,0,0,1,.07.41,2.11,2.11,0,0,1,0,.26.85.85,0,0,1-.09.24.83.83,0,0,1-.16.21A.72.72,0,0,1,20.87,38Zm-.75-.28a1,1,0,0,0,.25,0,.72.72,0,0,0,.22-.08.35.35,0,0,0,.15-.17.5.5,0,0,0,.06-.26.64.64,0,0,0,0-.2.51.51,0,0,0-.09-.16.42.42,0,0,0-.16-.09.56.56,0,0,0-.23,0h-1v1Z"/><path d="M23.17,39.42a.57.57,0,0,1,0,.13.54.54,0,0,1-.05.11l-.09.07a.32.32,0,0,1-.14,0,.25.25,0,0,1-.13,0,.22.22,0,0,1-.09-.07.27.27,0,0,1-.05-.11.59.59,0,0,1,0-.13V36.5a.51.51,0,0,1,0-.13l.06-.1a.28.28,0,0,1,.09-.07.25.25,0,0,1,.24,0,.16.16,0,0,1,.09.07.21.21,0,0,1,.06.1.27.27,0,0,1,0,.13v1.28l1.44-1.53.09-.06.11,0,.09,0,.09.07a.41.41,0,0,1,.05.09.22.22,0,0,1,0,.11.43.43,0,0,1,0,.11.24.24,0,0,1-.06.09l-1,1,1.13,1.64a.22.22,0,0,1,.05.11.24.24,0,0,1,0,.12.3.3,0,0,1,0,.11.18.18,0,0,1-.07.08.16.16,0,0,1-.1,0h-.11l-.1,0-.09-.08-1.07-1.57-.22.22-.22.23Z"/><path d="M30.32,38a.44.44,0,0,1,.2.08.42.42,0,0,1,.13.16.85.85,0,0,1,.09.24,1.58,1.58,0,0,1,0,.32,1.23,1.23,0,0,0,0,.2q0,.09,0,.15l0,.13a.45.45,0,0,1,0,.11.51.51,0,0,1,0,.13.24.24,0,0,1-.06.11.16.16,0,0,1-.08.06.23.23,0,0,1-.11,0,.41.41,0,0,1-.16,0,.23.23,0,0,1-.1-.07l-.07-.09a.61.61,0,0,1,0-.11.43.43,0,0,1,0-.11v-.08a2.54,2.54,0,0,0,0-.41,1.19,1.19,0,0,0-.07-.31.46.46,0,0,0-.16-.2.43.43,0,0,0-.24-.07h-1v1.15a.3.3,0,0,1,0,.13.21.21,0,0,1-.06.1.22.22,0,0,1-.09.07.21.21,0,0,1-.12,0,.24.24,0,0,1-.12,0,.22.22,0,0,1-.09-.07.21.21,0,0,1-.06-.1.59.59,0,0,1,0-.13V36.52a.37.37,0,0,1,0-.12.36.36,0,0,1,.07-.1.22.22,0,0,1,.09-.07l.11,0h1.3a1.53,1.53,0,0,1,.45.06,1,1,0,0,1,.34.19.81.81,0,0,1,.21.3,1,1,0,0,1,.07.41,1.09,1.09,0,0,1,0,.26.5.5,0,0,1-.09.24.8.8,0,0,1-.15.21A1,1,0,0,1,30.32,38Zm-.76-.28a1.1,1.1,0,0,0,.26,0,.83.83,0,0,0,.22-.08.5.5,0,0,0,.21-.43.64.64,0,0,0,0-.2.34.34,0,0,0-.25-.25.61.61,0,0,0-.24,0h-1v1Z"/><path d="M34.8,38.43a1.8,1.8,0,0,1-.09.6,1.24,1.24,0,0,1-.26.43,1.22,1.22,0,0,1-.43.25,1.72,1.72,0,0,1-.58.09,2.1,2.1,0,0,1-.59-.08,1.18,1.18,0,0,1-.44-.25,1,1,0,0,1-.28-.42,1.93,1.93,0,0,1-.09-.62V36.51a.49.49,0,0,1,0-.12.28.28,0,0,1,.05-.11l.09-.08a.32.32,0,0,1,.14,0,.25.25,0,0,1,.13,0,.24.24,0,0,1,.09.08.19.19,0,0,1,.05.11.5.5,0,0,1,0,.12v1.92a.86.86,0,0,0,.21.63.82.82,0,0,0,.61.21.73.73,0,0,0,.58-.21.9.9,0,0,0,.2-.63V36.51a.49.49,0,0,1,0-.12.28.28,0,0,1,.05-.11l.09-.08a.32.32,0,0,1,.14,0,.25.25,0,0,1,.13,0,.24.24,0,0,1,.09.08.19.19,0,0,1,.05.11.25.25,0,0,1,0,.12Z"/><path d="M36.12,36.59a.5.5,0,0,1,.09-.33.45.45,0,0,1,.3-.1.35.35,0,0,1,.18.05.41.41,0,0,1,.14.15l1.44,2.42V36.5a.36.36,0,0,1,.07-.25.29.29,0,0,1,.22-.09.26.26,0,0,1,.21.09.36.36,0,0,1,.08.25v2.82a.54.54,0,0,1-.09.33.31.31,0,0,1-.28.12l-.14,0a.21.21,0,0,1-.1-.06.3.3,0,0,1-.08-.08.36.36,0,0,1-.07-.1L36.7,37.16v2.28a.37.37,0,0,1-.08.25.29.29,0,0,1-.21.08.31.31,0,0,1-.22-.08.37.37,0,0,1-.07-.25Z"/><path class="cls-2" d="M27.51,12.52a4.33,4.33,0,0,1,1.8.38,4.57,4.57,0,0,1,1.46,1,4.81,4.81,0,0,1,1,1.54,5.22,5.22,0,0,1,0,3.81,4.84,4.84,0,0,1-1,1.57,4.76,4.76,0,0,1-1.46,1.06,4.33,4.33,0,0,1-1.8.38H24.75V28h-.36a1.46,1.46,0,0,1-1.47-1.46V17.4a5,5,0,0,1,.36-1.91,5,5,0,0,1,1-1.54,4.41,4.41,0,0,1,3.24-1.43Zm1.09,7.62a2.67,2.67,0,0,0,.89-.63,3,3,0,0,0,.81-2.11,3.08,3.08,0,0,0-.21-1.14,3.15,3.15,0,0,0-.6-.94,2.72,2.72,0,0,0-2-.86,2.57,2.57,0,0,0-1.07.23,2.63,2.63,0,0,0-.88.63,3,3,0,0,0-.6.94,3.08,3.08,0,0,0-.21,1.14v3h2.76A2.66,2.66,0,0,0,28.6,20.14Z"/><path class="cls-3" d="M31.24,23.05V25h-.92a2.65,2.65,0,0,0-1.08.23,3.06,3.06,0,0,0-.88.64,2.89,2.89,0,0,0-.59.93,3.14,3.14,0,0,0-.22,1.15v5.49h0a1.81,1.81,0,0,1-1.81-1.81V27.94A5,5,0,0,1,26.07,26a4.89,4.89,0,0,1,1-1.55,5,5,0,0,1,1.48-1.05,4.31,4.31,0,0,1,1.78-.38Z"/><path d="M12.75,41.94v2.71a.57.57,0,0,1,0,.13.3.3,0,0,1-.06.11.22.22,0,0,1-.09.07.25.25,0,0,1-.13,0,.32.32,0,0,1-.14,0,.31.31,0,0,1-.09-.07.54.54,0,0,1-.05-.11.59.59,0,0,1,0-.13V41.94H11.4l-.1,0a.35.35,0,0,1-.14-.14.22.22,0,0,1,0-.22.15.15,0,0,1,.06-.09l.08,0a.18.18,0,0,1,.1,0h2.13a.22.22,0,0,1,.11,0l.08,0a.15.15,0,0,1,.06.09.31.31,0,0,1,0,.22.24.24,0,0,1-.06.09l-.08.05-.11,0Z"/><path d="M17.59,44.65a.5.5,0,0,1,0,.12.37.37,0,0,1-.05.11.24.24,0,0,1-.09.08.29.29,0,0,1-.14,0,.25.25,0,0,1-.13,0,.24.24,0,0,1-.09-.08.39.39,0,0,1-.06-.11.49.49,0,0,1,0-.12V43.4H15.42v1.25a.49.49,0,0,1,0,.12.37.37,0,0,1-.05.11l-.09.08A.34.34,0,0,1,15,45a.34.34,0,0,1-.09-.08.37.37,0,0,1-.05-.11.5.5,0,0,1,0-.12V41.7a.5.5,0,0,1,0-.12.37.37,0,0,1,.05-.11.23.23,0,0,1,.09-.08.34.34,0,0,1,.28,0,.32.32,0,0,1,.09.08.37.37,0,0,1,.05.11.49.49,0,0,1,0,.12v1.17H17V41.7a.49.49,0,0,1,0-.12.39.39,0,0,1,.06-.11.18.18,0,0,1,.09-.08.25.25,0,0,1,.13,0,.29.29,0,0,1,.14,0,.18.18,0,0,1,.09.08.37.37,0,0,1,.05.11.5.5,0,0,1,0,.12Z"/><path d="M19.8,41.63a.38.38,0,0,1,.13-.18.29.29,0,0,1,.19-.06h.28l.1,0s.05,0,.08.07a.53.53,0,0,1,.06.13l.95,2.78,0,.07,0,.07s0,0,0,.08a.13.13,0,0,1,0,.06.36.36,0,0,1,0,.11l-.06.09-.09.06-.11,0a.48.48,0,0,1-.18,0,.27.27,0,0,1-.1-.13l-.25-.76H19.54l-.26.76a.25.25,0,0,1-.09.13A.34.34,0,0,1,19,45l-.11,0a.15.15,0,0,1-.09-.06.16.16,0,0,1-.06-.08.43.43,0,0,1,0-.12.13.13,0,0,1,0-.06s0,0,0-.08l0-.07a.08.08,0,0,1,0-.06Zm.41.39-.55,1.62h1.07Z"/><path d="M23.46,44.65a.49.49,0,0,1,0,.12.37.37,0,0,1-.05.11l-.09.08A.34.34,0,0,1,23,45l-.09-.08a.37.37,0,0,1-.05-.11.49.49,0,0,1,0-.12V41.71a.53.53,0,0,1,0-.13.37.37,0,0,1,.05-.11l.09-.08a.34.34,0,0,1,.28,0l.09.08a.37.37,0,0,1,.05.11.53.53,0,0,1,0,.13Z"/><path d="M24.84,41.69a.5.5,0,0,1,0-.12l.06-.11.09-.07a.28.28,0,0,1,.13,0,.27.27,0,0,1,.12,0l.09.07a.24.24,0,0,1,.06.11.5.5,0,0,1,0,.12v2.73h1.42l.1,0,.08.06a.22.22,0,0,1,0,.08.43.43,0,0,1,0,.11.3.3,0,0,1,0,.1.41.41,0,0,1,0,.09l-.08,0a.18.18,0,0,1-.1,0H25.14a.25.25,0,0,1-.12,0l-.09-.07a.21.21,0,0,1-.06-.1.27.27,0,0,1,0-.12Z"/><path d="M29.09,41.63a.28.28,0,0,1,.13-.18.29.29,0,0,1,.19-.06h.28a.25.25,0,0,1,.09,0,.28.28,0,0,1,.09.07.53.53,0,0,1,.06.13l.95,2.78,0,.07a.19.19,0,0,1,0,.07.24.24,0,0,1,0,.08.13.13,0,0,1,0,.06.36.36,0,0,1,0,.11l-.06.09-.1.06-.11,0a.47.47,0,0,1-.17,0,.22.22,0,0,1-.1-.13l-.25-.76H28.83l-.26.76a.22.22,0,0,1-.1.13.29.29,0,0,1-.17,0l-.12,0a.24.24,0,0,1-.09-.06.22.22,0,0,1-.05-.08.23.23,0,0,1,0-.12v-.06s0,0,0-.08a.19.19,0,0,0,0-.07l0-.06Zm.4.39L29,43.64H30Z"/><path d="M32.12,41.79a.51.51,0,0,1,.09-.34.46.46,0,0,1,.31-.1.36.36,0,0,1,.32.2L34.29,44V41.7a.38.38,0,0,1,.08-.26.27.27,0,0,1,.22-.09.26.26,0,0,1,.21.09.34.34,0,0,1,.08.26v2.85a.54.54,0,0,1-.09.33.31.31,0,0,1-.28.12l-.14,0a.24.24,0,0,1-.11-.06l-.08-.08a.86.86,0,0,1-.07-.1L32.7,42.36v2.3a.38.38,0,0,1-.07.26.31.31,0,0,1-.22.08.33.33,0,0,1-.22-.08.38.38,0,0,1-.07-.26Z"/><path d="M36.51,45a.25.25,0,0,1-.12,0l-.09-.07a.21.21,0,0,1-.06-.1.27.27,0,0,1,0-.12V41.71a.27.27,0,0,1,0-.12.21.21,0,0,1,.06-.1l.09-.07.12,0h.89a2.26,2.26,0,0,1,.71.1,1.38,1.38,0,0,1,.52.32,1.31,1.31,0,0,1,.32.52,2.37,2.37,0,0,1,.11.75,2.71,2.71,0,0,1-.1.79,1.48,1.48,0,0,1-.29.59,1.28,1.28,0,0,1-.52.36,2.11,2.11,0,0,1-.75.12Zm.92-.53h.18l.22,0a.89.89,0,0,0,.23-.13.74.74,0,0,0,.21-.22,1.27,1.27,0,0,0,.15-.35,1.8,1.8,0,0,0,.06-.5,2.06,2.06,0,0,0-.06-.52.79.79,0,0,0-.18-.38.65.65,0,0,0-.32-.24,1.13,1.13,0,0,0-.47-.08H36.8v2.48Z"/><path class="cls-4" d="M18.48,17.72h3.8v-3.8a3.81,3.81,0,0,0-3.8-3.81h0a3.81,3.81,0,0,0-3.8,3.81h0A3.8,3.8,0,0,0,18.48,17.72Z"/><path class="cls-5" d="M19.62,9.57h2.66V6.9a2.66,2.66,0,0,0-2.66-2.66h0A2.66,2.66,0,0,0,17,6.9h0A2.67,2.67,0,0,0,19.62,9.57Z"/><path class="cls-6" d="M26,12.12h-3v-3a3,3,0,0,1,3-3h0a3,3,0,0,1,3,3h0A3,3,0,0,1,26,12.12Z"/><rect class="cls-7" x="25.72" y="23.05" width="1.83" height="4.52"/></svg>